<svg xmlns="http://www.w3.org/2000/svg" xmlns:xlink="http://www.w3.org/1999/xlink" version="1.1" id="Calque_1" x="0px" y="0px" viewBox="0 0 20 20" style="enable-background:new 0 0 20 20;" xml:space="preserve" class="injected-svg converted--image">
	<path d="M5.4,1.2c0.9,0,1.7,0.3,2.3,0.8C8.2,2.3,8.6,2.8,9,3.5l1,1.7l1-1.7c1-1.7,2-2.3,3.7-2.3c2.3,0,4.1,1.8,4.1,4.1   c0,4.5-5,9.4-8.6,13L10,18.6l-0.2-0.2c-3.6-3.6-8.6-8.5-8.6-13c0-1.6,0.9-3,2.3-3.7C4.1,1.4,4.8,1.2,5.4,1.2 M5.4,0   C4.6,0,3.8,0.2,3,0.6C1.1,1.5,0,3.2,0,5.3c0,5,5.2,10.1,8.9,13.9l0.6,0.6C9.7,19.9,9.8,20,10,20c0.2,0,0.3-0.1,0.4-0.2l0.6-0.6   c3.8-3.8,8.9-8.9,8.9-13.9C20,2.4,17.6,0,14.7,0c-2.1,0-3.5,0.8-4.7,2.9C9.5,2.1,9,1.5,8.5,1C7.6,0.3,6.5,0,5.4,0L5.4,0z"></path>
</svg>