<?xml version="1.0" encoding="utf-8"?>
<!-- Generator: Adobe Illustrator 25.0.1, SVG Export Plug-In . SVG Version: 6.00 Build 0)  -->
<svg version="1.1" id="Calque_1" xmlns="http://www.w3.org/2000/svg" xmlns:xlink="http://www.w3.org/1999/xlink" x="0px" y="0px"
	 viewBox="0 0 18 20" style="enable-background:new 0 0 18 20;" xml:space="preserve">
<style type="text/css">
	.st0{fill:#FFFFFF;}
</style>
<g>
	<path d="M16.8,0H1.2L0,17.7C0,19,1.1,20,2.3,20h13.3c1.3,0,2.3-1,2.3-2.3L16.8,0L16.8,0z"/>
</g>
<g>
	<path class="st0" d="M14,3.4c0-0.6-0.4-1-1-1s-1,0.4-1,1c0,0.3,0.2,0.6,0.4,0.8C12.1,5.8,10.7,7,9,7S5.9,5.8,5.6,4.2
		C5.8,4,6,3.7,6,3.4c0-0.6-0.4-1-1-1s-1,0.4-1,1c0,0.4,0.2,0.7,0.6,0.9C5,6.4,6.8,8,9,8s4-1.6,4.4-3.7C13.8,4.1,14,3.8,14,3.4z"/>
</g>
</svg>
