<?xml version="1.0" encoding="utf-8"?>
<!-- Generator: Adobe Illustrator 25.0.1, SVG Export Plug-In . SVG Version: 6.00 Build 0)  -->
<svg version="1.1" id="Calque_1" xmlns="http://www.w3.org/2000/svg" xmlns:xlink="http://www.w3.org/1999/xlink" x="0px" y="0px"
	 viewBox="0 0 28 20" style="enable-background:new 0 0 28 20;" xml:space="preserve">
<g>
	<g>
		<g>
			<path d="M19.5,10.7h6l-3.3-3.9c-0.1-0.1-0.1-0.1-0.2-0.1h-2.5V10.7z"/>
		</g>
	</g>
</g>
<path d="M18.2,2.5C18.2,1.1,17,0,15.5,0H2.7C1.2,0,0,1.1,0,2.5v11C0,14.9,1.2,16,2.7,16h2.2c-0.1,0.2-0.1,0.5-0.1,0.8
	C4.8,18.6,6.2,20,8,20s3.2-1.4,3.2-3.2c0-0.3,0-0.5-0.1-0.8h7.1V2.5z M10,16.8c0,1.1-0.9,2-2,2s-2-0.9-2-2c0-0.3,0.1-0.5,0.2-0.8
	c0.3-0.7,1-1.2,1.8-1.2s1.5,0.5,1.8,1.2C9.9,16.2,10,16.5,10,16.8z M17,14.8h-6.5C9.9,14.1,9,13.6,8,13.6s-1.9,0.5-2.5,1.2H2.7
	c-0.8,0-1.5-0.6-1.5-1.3v-11c0-0.7,0.7-1.3,1.5-1.3h12.8c0.8,0,1.5,0.6,1.5,1.3V14.8z"/>
<path d="M27.8,8.8l-4.6-4.6C23.1,4.1,22.9,4,22.8,4H17v12h2.4c-0.1,0.2-0.1,0.5-0.1,0.8c0,1.8,1.4,3.2,3.2,3.2s3.2-1.4,3.2-3.2
	c0-0.3,0-0.5-0.1-0.8h1.8c0.3,0,0.6-0.3,0.6-0.6V9.3C28,9.1,27.9,9,27.8,8.8z M24.5,16.8c0,1.1-0.9,2-2,2s-2-0.9-2-2
	c0-0.3,0.1-0.5,0.2-0.8c0.3-0.7,1-1.2,1.8-1.2s1.5,0.5,1.8,1.2C24.4,16.2,24.5,16.5,24.5,16.8z M26.8,14.8H25
	c-0.6-0.7-1.5-1.2-2.5-1.2s-1.9,0.5-2.5,1.2h-1.8V5.2h4.3l4.3,4.3V14.8z"/>
<g>
	<path d="M11.3,8.6H2.7C2.3,8.6,2.1,8.3,2.1,8c0-0.3,0.3-0.6,0.6-0.6h8.7c0.3,0,0.6,0.3,0.6,0.6C11.9,8.3,11.7,8.6,11.3,8.6z"/>
</g>
<g>
	<path d="M15.3,11.6H4.7c-0.3,0-0.6-0.3-0.6-0.6c0-0.3,0.3-0.6,0.6-0.6h10.7c0.3,0,0.6,0.3,0.6,0.6C15.9,11.3,15.7,11.6,15.3,11.6z"
		/>
</g>
<g>
	<path d="M13.9,5.6H6.1C5.8,5.6,5.5,5.4,5.5,5s0.3-0.6,0.6-0.6h7.8c0.3,0,0.6,0.3,0.6,0.6S14.2,5.6,13.9,5.6z"/>
</g>
</svg>
