<?xml version="1.0" encoding="utf-8"?>
<!-- Generator: Adobe Illustrator 25.1.0, SVG Export Plug-In . SVG Version: 6.00 Build 0)  -->
<svg version="1.1" id="Calque_1" xmlns="http://www.w3.org/2000/svg" xmlns:xlink="http://www.w3.org/1999/xlink" x="0px" y="0px"
	 viewBox="0 0 22 16" style="enable-background:new 0 0 22 16;" xml:space="preserve">
<style type="text/css">
	.st0{fill:#A8977A;}
</style>
<path class="st0" d="M21.9,7.6c-0.1-0.2-1.8-2.9-4.9-4.8l2-2L18.2,0l-2.3,2.3c-1.4-0.7-3.1-1.2-4.9-1.2C4.1,1.1,0.3,7.4,0.1,7.6
	C0,7.8,0,8.1,0.1,8.3c0.1,0.2,1.8,3,5,4.8L3,15.2L3.8,16l2.3-2.3c1.4,0.7,3,1.1,4.9,1.1c6.9,0,10.7-6.3,10.9-6.5
	C22,8.1,22,7.8,21.9,7.6z M1.4,8C2.2,6.7,5.7,2.4,11,2.4c1.5,0,2.8,0.3,4,0.9l-1.9,1.9c-0.6-0.4-1.3-0.7-2.1-0.7
	C9.1,4.5,7.5,6,7.5,8c0,0.8,0.3,1.5,0.7,2.1L6,12.2C3.5,10.8,1.9,8.7,1.4,8z M13.3,8c0,1.3-1,2.3-2.3,2.3c-0.4,0-0.8-0.1-1.1-0.3
	L13,6.8C13.2,7.2,13.3,7.5,13.3,8z M8.7,8c0-1.3,1-2.3,2.3-2.3c0.4,0,0.8,0.1,1.2,0.3L9,9.2C8.8,8.8,8.7,8.4,8.7,8z M11,13.6
	c-1.5,0-2.8-0.3-3.9-0.8L9,10.8c0.6,0.4,1.3,0.6,2,0.6c1.9,0,3.5-1.6,3.5-3.5c0-0.7-0.2-1.4-0.6-2l2.2-2.2c2.4,1.4,4,3.4,4.6,4.2
	C19.8,9.2,16.3,13.6,11,13.6z"/>
</svg>
