<?xml version="1.0" encoding="utf-8"?>
<!-- Generator: Adobe Illustrator 25.1.0, SVG Export Plug-In . SVG Version: 6.00 Build 0)  -->
<svg version="1.1" id="Calque_1" xmlns="http://www.w3.org/2000/svg" xmlns:xlink="http://www.w3.org/1999/xlink" x="0px" y="0px"
	 viewBox="0 0 22 16" style="enable-background:new 0 0 22 16;" xml:space="preserve">
<style type="text/css">
	.st0{fill:#897047;}
</style>
<g>
	<path class="st0" d="M11,14.8c-6.9,0-10.7-6.3-10.9-6.5C0,8.1,0,7.8,0.1,7.6c0.2-0.3,4-6.5,10.9-6.5s10.7,6.3,10.9,6.5
		c0.1,0.2,0.1,0.4,0,0.6C21.7,8.5,17.9,14.8,11,14.8z M1.4,8c0.9,1.2,4.3,5.6,9.6,5.6c5.3,0,8.8-4.4,9.6-5.6
		c-0.9-1.2-4.3-5.6-9.6-5.6C5.7,2.4,2.2,6.7,1.4,8z"/>
	<g id="Tracé_171" transform="translate(-5 -4.883)">
		<path class="st0" d="M16,10.5c-1.3,0-2.3,1-2.3,2.3c0,1.3,1,2.3,2.3,2.3c1.3,0,2.3-1,2.3-2.3C18.3,11.6,17.3,10.5,16,10.5 M16,9.3
			c1.9,0,3.5,1.6,3.5,3.5s-1.6,3.5-3.5,3.5s-3.5-1.6-3.5-3.5S14.1,9.3,16,9.3z"/>
	</g>
</g>
</svg>
