<?xml version="1.0" encoding="utf-8"?>
<!-- Generator: Adobe Illustrator 25.0.1, SVG Export Plug-In . SVG Version: 6.00 Build 0)  -->
<svg version="1.1" id="Calque_1" xmlns="http://www.w3.org/2000/svg" xmlns:xlink="http://www.w3.org/1999/xlink" x="0px" y="0px"
	 viewBox="0 0 30 30" style="enable-background:new 0 0 30 30;" xml:space="preserve">
<path d="M21.7,0H8.3C3.7,0,0,3.7,0,8.3v13.4C0,26.3,3.7,30,8.3,30h4.6c0,0,0-7,0-12.8h-2.5v-4.5h2.5V9.7c0-2.1,1-5.4,5.4-5.4l3.9,0
	v4.4c0,0-2.4,0-2.9,0c-0.5,0-1.1,0.2-1.1,1.2v2.7h4.1l-0.5,4.5h-3.6c0,5.7,0,12.8,0,12.8h3.5c4.6,0,8.3-3.7,8.3-8.3V8.3
	C30,3.7,26.3,0,21.7,0z"/>
</svg>
