<?xml version="1.0" encoding="utf-8"?>
<!-- Generator: Adobe Illustrator 25.0.1, SVG Export Plug-In . SVG Version: 6.00 Build 0)  -->
<svg version="1.1" id="Calque_1" xmlns="http://www.w3.org/2000/svg" xmlns:xlink="http://www.w3.org/1999/xlink" x="0px" y="0px"
	 viewBox="0 0 20 20" style="enable-background:new 0 0 20 20;" xml:space="preserve">
<style type="text/css">
	.st0{fill:#12100B;}
</style>
<path class="st0" d="M18.6,3.8C19,2.9,18.8,1.8,18,1c-0.6-0.6-1.5-1-2.3-1c-0.7,0-1.4,0.2-2,0.7l-3.7,3l-3.7-3C5.7,0.2,5,0,4.3,0
	C3.4,0,2.6,0.3,2,1C1.2,1.8,1,2.9,1.4,3.8C0.6,3.9,0,4.5,0,5.3v3C0,9,0.5,9.6,1.2,9.8V17c0,1.7,1.3,3,3,3h5.2h1.2h5.2
	c1.7,0,3-1.3,3-3V9.8C19.5,9.6,20,9,20,8.3v-3C20,4.5,19.4,3.9,18.6,3.8z M14.5,1.6c0.3-0.3,0.8-0.4,1.3-0.4c0.6,0,1.1,0.2,1.4,0.6
	c0.3,0.3,0.5,0.7,0.4,1.1c0,0.3-0.1,0.6-0.3,0.8l-5.4,0L14.5,1.6z M2.8,1.8c0.4-0.4,0.9-0.6,1.4-0.6c0.5,0,0.9,0.2,1.2,0.4l2.7,2.2
	l-5.4,0C2.5,3.5,2.4,3.3,2.4,2.9C2.4,2.5,2.5,2.1,2.8,1.8z M1.2,5.3C1.2,5.1,1.3,5,1.5,5h7l0,0l0.1,0h0.8v3.6H1.5
	c-0.2,0-0.3-0.1-0.3-0.3V5.3z M4.2,18.8c-1,0-1.8-0.8-1.8-1.8V9.8h7v9H4.2z M17.6,17c0,1-0.8,1.8-1.8,1.8h-5.2v-9h7V17z M18.8,8.3
	c0,0.2-0.1,0.3-0.3,0.3h-7.9V5h0.8l0.1,0l0,0h7c0.2,0,0.3,0.1,0.3,0.3V8.3z"/>
</svg>
