<?xml version="1.0" encoding="utf-8"?>
<!-- Generator: Adobe Illustrator 25.0.1, SVG Export Plug-In . SVG Version: 6.00 Build 0)  -->
<svg version="1.1" id="Calque_1" xmlns="http://www.w3.org/2000/svg" xmlns:xlink="http://www.w3.org/1999/xlink" x="0px" y="0px"
	 viewBox="0 0 30 30" style="enable-background:new 0 0 30 30;" xml:space="preserve">
<g>
	<path d="M21.7,0H8.3C3.7,0,0,3.7,0,8.3v13.4C0,26.3,3.7,30,8.3,30h13.4c4.6,0,8.3-3.7,8.3-8.3V8.3C30,3.7,26.3,0,21.7,0z M15,22.7
		c-4.3,0-7.7-3.5-7.7-7.7c0-4.3,3.5-7.7,7.7-7.7s7.7,3.5,7.7,7.7C22.7,19.3,19.3,22.7,15,22.7z M24.4,8.3c-0.4,0.4-0.9,0.6-1.4,0.6
		c-0.5,0-1-0.2-1.4-0.6C21.3,8,21.1,7.5,21.1,7c0-0.5,0.2-1,0.6-1.4C22,5.2,22.5,5,23.1,5c0.5,0,1,0.2,1.4,0.6C24.8,5.9,25,6.5,25,7
		C25,7.5,24.8,8,24.4,8.3z"/>
	<path d="M15,10.5c-2.5,0-4.5,2-4.5,4.5c0,2.5,2,4.5,4.5,4.5s4.5-2,4.5-4.5C19.5,12.5,17.5,10.5,15,10.5z"/>
</g>
</svg>
