<?xml version="1.0" encoding="utf-8"?>
<!-- Generator: Adobe Illustrator 25.0.1, SVG Export Plug-In . SVG Version: 6.00 Build 0)  -->
<svg version="1.1" id="Calque_1" xmlns="http://www.w3.org/2000/svg" xmlns:xlink="http://www.w3.org/1999/xlink" x="0px" y="0px"
	 viewBox="0 0 16 20" style="enable-background:new 0 0 16 20;" xml:space="preserve">
<g id="Tracé_130" transform="translate(21 125)">
	<path d="M-12.8-123.8c3.6,0,6.4,2.8,6.6,6.3c0,2.7-4.7,8.6-6.8,10.8c-2.1-2.2-6.8-8.1-6.8-10.8c0.1-3.6,3-6.3,6.6-6.3
		c0.1,0,0.1,0,0.2,0l0,0l0,0C-12.9-123.8-12.8-123.8-12.8-123.8 M-12.8-125c-0.1,0-0.2,0-0.2,0c-0.1,0-0.2,0-0.2,0
		c-4.2,0-7.6,3.3-7.8,7.5c0,4.1,7.9,12.5,8,12.5s8-8.4,8-12.5C-5.1-121.7-8.6-125-12.8-125L-12.8-125z"/>
</g>
<g id="Ellipse_44" transform="translate(25 128)">
	<path d="M-17-123.8c1.5,0,2.8,1.3,2.8,2.8s-1.3,2.8-2.8,2.8s-2.8-1.3-2.8-2.8S-18.5-123.8-17-123.8 M-17-125c-2.2,0-4,1.8-4,4
		s1.8,4,4,4s4-1.8,4-4S-14.8-125-17-125L-17-125z"/>
</g>
</svg>
