<?xml version="1.0" encoding="utf-8"?>
<!-- Generator: Adobe Illustrator 25.0.1, SVG Export Plug-In . SVG Version: 6.00 Build 0)  -->
<svg version="1.1" id="Calque_1" xmlns="http://www.w3.org/2000/svg" xmlns:xlink="http://www.w3.org/1999/xlink" x="0px" y="0px"
	 viewBox="0 0 16 20" style="enable-background:new 0 0 16 20;" xml:space="preserve">
<style type="text/css">
	.st0{fill:#12100B;}
</style>
<path class="st0" d="M13.5,7H13V5.4c0-3-2.2-5.4-5-5.4S3,2.4,3,5.4V7H2.5C1.1,7,0,8.1,0,9.5v8C0,18.9,1.1,20,2.5,20h11
	c1.4,0,2.5-1.1,2.5-2.5v-8C16,8.1,14.9,7,13.5,7z M4.2,5.4c0-2.3,1.7-4.2,3.8-4.2s3.8,1.9,3.8,4.2V7H4.2V5.4z M14.8,17.5
	c0,0.7-0.6,1.3-1.3,1.3h-11c-0.7,0-1.3-0.6-1.3-1.3v-8c0-0.7,0.6-1.3,1.3-1.3H3h10h0.5c0.7,0,1.3,0.6,1.3,1.3V17.5z"/>
<g>
	<path class="st0" d="M10,12.5c0-1.1-0.9-2-2-2s-2,0.9-2,2c0,0.9,0.6,1.6,1.4,1.9v1.4c0,0.4,0.3,0.7,0.6,0.7s0.6-0.3,0.6-0.7v-1.4
		C9.4,14.1,10,13.4,10,12.5z M8,13.3c-0.4,0-0.8-0.4-0.8-0.8s0.4-0.8,0.8-0.8s0.8,0.4,0.8,0.8S8.4,13.3,8,13.3z"/>
</g>
</svg>
