<?xml version="1.0" encoding="utf-8"?>
<!-- Generator: Adobe Illustrator 25.0.1, SVG Export Plug-In . SVG Version: 6.00 Build 0)  -->
<svg version="1.1" id="Calque_1" xmlns="http://www.w3.org/2000/svg" xmlns:xlink="http://www.w3.org/1999/xlink" x="0px" y="0px"
	 viewBox="0 0 18 20" style="enable-background:new 0 0 18 20;" xml:space="preserve">
<g>
	<g>
		<path d="M9,12.2c4.1,0,7.5,2.9,7.8,6.6H1.2C1.5,15.1,4.9,12.2,9,12.2 M9,11c-5,0-9,3.7-9,8.3C0,19.7,0.3,20,0.7,20h16.6
			c0.4,0,0.7-0.3,0.7-0.7C18,14.7,14,11,9,11L9,11z"/>
	</g>
	<g>
		<path d="M9,1.2c2.1,0,3.8,1.7,3.8,3.8c0,2.1-1.7,3.8-3.8,3.8S5.2,7.1,5.2,5C5.2,2.9,6.9,1.2,9,1.2 M9,0C6.2,0,4,2.2,4,5
			c0,2.8,2.2,5,5,5c2.8,0,5-2.2,5-5C14,2.2,11.8,0,9,0L9,0z"/>
	</g>
</g>
</svg>
