<?xml version="1.0" encoding="utf-8"?>
<!-- Generator: Adobe Illustrator 25.0.1, SVG Export Plug-In . SVG Version: 6.00 Build 0)  -->
<svg version="1.1" id="Calque_1" xmlns="http://www.w3.org/2000/svg" xmlns:xlink="http://www.w3.org/1999/xlink" x="0px" y="0px"
	 viewBox="0 0 265 32" style="enable-background:new 0 0 265 32;" xml:space="preserve">
<g>
	<path d="M14.6,26.1H7.8c-5.1,0-7.8-2.6-7.8-7.5v-4C0,8,4.7,7.1,9.3,7.1h5c5.4,0,8.1,2.1,8.1,6.4v0.9h-3.6v-0.8
		c0-2.4-1.2-3.2-4.5-3.2H8.8c-2.7,0-5.1,0.3-5.1,4.4v3.7c0,3.7,2.3,4.5,5.7,4.5h5c3.2,0,4.7-1.1,4.7-3.3v-1h3.6v0.9
		C22.7,24.2,20.4,26.1,14.6,26.1L14.6,26.1z"/>
	<path d="M42.4,7.1h-4.3c-4.7,0-10.2,0.9-10.2,7.6v3.9c0,6.7,5.4,7.6,10.2,7.6h4.3c4.7,0,10.2-0.9,10.2-7.6v-3.9
		C52.6,8,47.1,7.1,42.4,7.1z M48.8,18.4c0,3.8-2.1,4.5-5.5,4.5h-6.1c-3.4,0-5.5-0.8-5.5-4.5v-3.5c0-3.8,2.1-4.5,5.5-4.5h6.1
		c3.4,0,5.5,0.8,5.5,4.5V18.4z"/>
	<path d="M73.9,7.1h-5.7c-2.5,0-4.5,0.8-5.6,2.2V7.4h-3.6V32h3.8v-7.5c0.9,1.1,2.4,1.6,4.9,1.6h5.7c6.5,0,9.1-2.3,9.1-8V15
		C82.5,9.7,79.7,7.1,73.9,7.1z M78.8,18.5c0,3.8-1.7,4.5-5.2,4.5h-5.3c-3.3,0-5.4-0.8-5.4-4.5V15c0-3.2,1.6-4.7,5-4.7h5.9
		c4.1,0,4.9,1.6,4.9,4.7V18.5z"/>
	<path d="M127.7,26.1h-6.7c-5.1,0-7.8-2.6-7.8-7.5v-4c0-6.6,4.7-7.5,9.3-7.5h5c5.4,0,8.1,2.1,8.1,6.4v0.9H132v-0.8
		c0-2.4-1.2-3.2-4.5-3.2H122c-2.7,0-5.1,0.3-5.1,4.4v3.7c0,3.7,2.3,4.5,5.7,4.5h5c3.2,0,4.7-1.1,4.7-3.3v-1h3.6v0.9
		C135.9,24.2,133.5,26.1,127.7,26.1L127.7,26.1z"/>
	<path d="M155.2,7.1H151c-4.7,0-10.2,0.9-10.2,7.6v3.9c0,6.7,5.4,7.6,10.2,7.6h4.3c4.7,0,10.2-0.9,10.2-7.6v-3.9
		C165.4,8,160,7.1,155.2,7.1z M161.7,18.4c0,3.8-2.1,4.5-5.5,4.5h-6.1c-3.4,0-5.5-0.8-5.5-4.5v-3.5c0-3.8,2.1-4.5,5.5-4.5h6.1
		c3.4,0,5.5,0.8,5.5,4.5V18.4z"/>
	<path d="M186.1,7.1h-5.7c-2.5,0-4.5,0.8-5.6,2.2V7.4h-3.6V32h3.8v-7.5c0.9,1.1,2.4,1.6,4.9,1.6h5.7c6.5,0,9.1-2.3,9.1-8V15
		C194.7,9.7,191.9,7.1,186.1,7.1z M190.9,18.5c0,3.8-1.7,4.5-5.2,4.5h-5.3c-3.3,0-5.4-0.8-5.4-4.5V15c0-3.2,1.6-4.7,5-4.7h5.9
		c4.1,0,4.9,1.6,4.9,4.7V18.5z"/>
	<polygon points="205.6,25.8 201.8,25.8 201.8,7.4 205.6,7.4 205.6,25.8 	"/>
	<polygon points="205.6,4 201.8,4 201.8,0 205.6,0 205.6,4 	"/>
	<path d="M236.2,25.8h-3.8V14.2c0-2.3-0.4-3.9-6.1-3.9h-0.8c-7,0-8.2,1.3-8.2,5.1v10.4h-3.8V7.4h3.6v2c1.4-1.9,3.7-2.3,6.8-2.3h4.5
		c6.7,0,7.8,4,7.8,6.4V25.8L236.2,25.8z"/>
	<path d="M265,17.5v-2.4c0-7.1-4.8-8-9.6-8h-4.8c-4.5,0-9.1,0.9-9.1,7.5v3.8c0,6.8,4.7,7.6,8.7,7.6h5.4c4.3,0,9.3-0.6,9.3-5.6v-0.7
		h-3.7l0,0.4c-0.1,2.3-1.1,2.8-5.1,2.8h-4.1c-5.3,0-6.8-1-6.8-4.7v-0.7H265z M251,10.3h4.4c3.8,0,5.8,1.1,5.8,3.2v0.8h-15.9
		C245.6,10.9,246.6,10.3,251,10.3z"/>
	<g>
		<g>
			<path d="M100.2,25.8h-4.7v-5.1h4.7V25.8L100.2,25.8z"/>
		</g>
	</g>
</g>
</svg>
