<?xml version="1.0" encoding="utf-8"?>
<!-- Generator: Adobe Illustrator 25.1.0, SVG Export Plug-In . SVG Version: 6.00 Build 0)  -->
<svg version="1.1" id="Calque_1" xmlns="http://www.w3.org/2000/svg" xmlns:xlink="http://www.w3.org/1999/xlink" x="0px" y="0px"
	 viewBox="0 0 30 30" style="enable-background:new 0 0 30 30;" xml:space="preserve">
<path d="M21.7,0H8.3C3.7,0,0,3.7,0,8.3v13.4C0,26.3,3.7,30,8.3,30h13.4c4.6,0,8.3-3.7,8.3-8.3V8.3C30,3.7,26.3,0,21.7,0z M25.4,9.9
	v10.2c0,0.3-0.1,0.6-0.2,0.8l-6.9-5.5l7-6.2C25.4,9.4,25.4,9.7,25.4,9.9z M23.4,7.9c0.4,0,0.7,0.1,1,0.3L15,16.5L5.6,8.1
	c0.3-0.2,0.6-0.3,1-0.3v0H23.4z M4.7,20.9c-0.1-0.3-0.2-0.5-0.2-0.8V9.9c0-0.2,0-0.5,0.1-0.7l7,6.2L4.7,20.9z M6.6,22.1
	c-0.3,0-0.6-0.1-0.9-0.2l7-5.6l1.8,1.6c0.1,0.1,0.3,0.2,0.5,0.2c0.2,0,0.3-0.1,0.5-0.2l1.8-1.6l7,5.6c-0.3,0.1-0.6,0.2-0.9,0.2H6.6z
	"/>
</svg>
