<?xml version="1.0" encoding="utf-8"?>
<!-- Generator: Adobe Illustrator 25.1.0, SVG Export Plug-In . SVG Version: 6.00 Build 0)  -->
<svg version="1.1" id="Calque_1" xmlns="http://www.w3.org/2000/svg" xmlns:xlink="http://www.w3.org/1999/xlink" x="0px" y="0px"
	 viewBox="0 0 175 22" style="enable-background:new 0 0 175 22;" xml:space="preserve">
<style type="text/css">
	.st0{fill:#CDC3B3;}
	.st1{fill:#A8977A;}
	.st2{fill:#B7A78D;}
</style>
<g>
	<path class="st0" d="M0,3.8c0.8-0.1,5.6-0.1,7.2,0C8,3.8,8.6,4.4,8.7,5c0.5,2.3,1,4.7,1.5,7c-0.8-2.7-3.1-5-5.7-6.4
		C3.2,4.9,1.5,4.3,0,3.8z"/>
	<g>
		<path class="st1" d="M14.5,3.8c1.4,0,2.9,0,4.3,0c-2.2,4.8-4.2,9.7-6.4,14.6c-1.4,0-2.8,0-4.2,0C6.9,14.1,5.8,9.9,4.6,5.7
			c2.6,1.4,4.8,3.7,5.7,6.4c0.1,0.5,0.2,1.1,0.3,1.6C11.8,10.4,13.2,7.1,14.5,3.8z"/>
		<path class="st1" d="M20.3,3.8c1.3,0,2.7,0,4,0c-0.8,4.8-1.7,9.7-2.5,14.5c-1.3,0-2.7,0-4,0C18.6,13.5,19.5,8.6,20.3,3.8z"/>
		<path class="st1" d="M28.2,4.7c2.4-1.5,5.6-1.4,8.2-0.6c-0.1,1.1-0.3,2.1-0.5,3.2c-1.4-0.6-3.1-0.9-4.6-0.5
			c-0.7,0.2-1.4,1-0.8,1.6c1.2,1.2,3.2,1.5,4.4,2.7c1.4,1.2,1.3,3.3,0.4,4.8c-1,1.5-2.9,2.3-4.7,2.6c-2.1,0.2-4.2,0.1-6.2-0.7
			c0.2-1.1,0.4-2.2,0.6-3.3c1.7,0.8,3.6,1.2,5.5,0.8c0.6-0.2,1.3-0.7,1.2-1.4c-0.2-0.8-1.1-1.2-1.9-1.6c-1.4-0.6-2.9-1.4-3.5-2.8
			C25.5,7.8,26.5,5.7,28.2,4.7z"/>
		<path class="st1" d="M46.7,3.8c-1.2,0-2.5,0-3.7,0c-0.8,0-1.4,0.8-1.6,1.4c-1.9,4.4-3.9,8.7-5.8,13.1c1.4,0,2.8,0,4.2,0
			c0.3-0.7,0.6-1.5,0.9-2.2c1.7,0,3.4,0,5.2,0c0.2,0.7,0.3,1.5,0.5,2.2c1.2,0,2.5,0,3.7,0C48.9,13.5,47.8,8.6,46.7,3.8z M41.8,13.1
			c0.7-1.8,1.4-3.6,2.2-5.4c0.2,1.8,0.7,3.6,1.1,5.4C44,13.1,42.9,13.1,41.8,13.1z"/>
	</g>
</g>
<rect x="82.8" y="2.4" class="st2" width="9.5" height="17.3"/>
<path id="_Path__3_" class="st1" d="M83.4,11c0-3.4,1.5-6.6,4.1-8.6C82.8-1.4,76-0.6,72.3,4.2s-2.9,11.7,1.8,15.4
	c3.9,3.1,9.4,3.1,13.4,0C84.9,17.6,83.4,14.4,83.4,11z"/>
<path class="st0" d="M105,11c0,6.1-4.8,11-10.8,11c-2.4,0-4.8-0.8-6.7-2.4C92.2,15.9,93,9,89.3,4.2c-0.5-0.7-1.1-1.3-1.8-1.9
	c4.7-3.8,11.5-2.9,15.2,1.8C104.2,6.1,105,8.5,105,11L105,11z"/>
<path class="st1" d="M138.5,3.5L138.5,3.5c0,0-2,0-2.5,2c-0.5,1.8-1.8,6.8-1.9,6.9h-0.4c0,0-1.4-5.1-1.9-6.9c-0.5-2-2.5-2-2.5-2H125
	v15h4.4V9.6h0.4l2.6,8.9h3.1l2.6-8.9h0.4v8.9h4.4v-15H138.5z M154.7,3.5c0,0-1.3,0.1-1.9,1.6l-3.2,7.3h-0.4V3.5h-4.4v15h4.2
	c0,0,1.4-0.1,2-1.6l3.1-7.3h0.4v8.9h4.4v-15H154.7z M160.9,10.3v8.2h4.4v-4.8h4.8c2.1,0,3.9-1.4,4.5-3.4L160.9,10.3L160.9,10.3
	L160.9,10.3z"/>
<path class="st0" d="M170.2,3.5h-9.9c0.5,2.9,2.5,5.1,5.1,5.9c0.6,0.2,1.2,0.3,1.9,0.3h7.6c0.1-0.3,0.1-0.7,0.1-1
	C175,5.8,172.8,3.5,170.2,3.5L170.2,3.5z"/>
</svg>
