<?xml version="1.0" encoding="utf-8"?>
<!-- Generator: Adobe Illustrator 25.0.1, SVG Export Plug-In . SVG Version: 6.00 Build 0)  -->
<svg version="1.1" id="Calque_1" xmlns="http://www.w3.org/2000/svg" xmlns:xlink="http://www.w3.org/1999/xlink" x="0px" y="0px"
	 viewBox="0 0 20 20" style="enable-background:new 0 0 20 20;" xml:space="preserve">
	 <style>
	 	g{ fill: #ffffff}
	 </style>
<g>
	<path d="M9,1c4.4,0,8,3.6,8,8c0,1.9-0.7,3.8-2,5.2l-0.4,0.4L14.2,15c-1.5,1.3-3.3,2-5.2,2c-4.4,0-8-3.6-8-8S4.6,1,9,1 M9,0
		C4,0,0,4,0,9c0,5,4,9,9,9c2.3,0,4.3-0.8,5.9-2.2l4,4c0.1,0.1,0.3,0.2,0.5,0.2s0.3-0.1,0.5-0.2c0.2-0.2,0.2-0.7,0-0.9l-4-4
		C17.2,13.3,18,11.3,18,9C18,4,14,0,9,0L9,0z"/>
</g>
</svg>
