<?xml version="1.0" encoding="utf-8"?>
<!-- Generator: Adobe Illustrator 25.0.1, SVG Export Plug-In . SVG Version: 6.00 Build 0)  -->
<svg version="1.1" id="Calque_1" xmlns="http://www.w3.org/2000/svg" xmlns:xlink="http://www.w3.org/1999/xlink" x="0px" y="0px"
	 viewBox="0 0 30 30" style="enable-background:new 0 0 30 30;" xml:space="preserve">
<g>
	<path d="M21.1,9.5c-3.6,2.3-10,6.4-10,6.4l1.4,4.7l0.3-3c0,0,5.5-4.9,8.6-7.8c0.1-0.1,0.1-0.2,0-0.3C21.4,9.5,21.2,9.4,21.1,9.5z"
		/>
	<path d="M21.7,0H8.3C3.7,0,0,3.7,0,8.3v13.4C0,26.3,3.7,30,8.3,30h13.4c4.6,0,8.3-3.7,8.3-8.3V8.3C30,3.7,26.3,0,21.7,0z M25.1,7.4
		c-0.7,3.1-2.4,11.9-3.2,15.3c-0.1,0.3-0.3,0.6-0.6,0.7c-0.3,0.1-0.7,0.1-0.9-0.1c-1.7-1.2-4.7-3.4-4.7-3.4s-1.6,1.5-2.6,2.5
		c-0.2,0.2-0.4,0.2-0.7,0.2c-0.2-0.1-0.4-0.3-0.5-0.5c-0.6-1.9-1.9-5.6-1.9-5.6S7.4,15.6,5.4,15c-0.3-0.1-0.5-0.3-0.5-0.6
		c0-0.3,0.2-0.6,0.5-0.7C9.8,12,20.7,7.9,24.2,6.6c0.2-0.1,0.5,0,0.7,0.1C25.1,6.9,25.2,7.1,25.1,7.4z"/>
</g>
</svg>
