<?xml version="1.0" encoding="utf-8"?>
<!-- Generator: Adobe Illustrator 25.0.1, SVG Export Plug-In . SVG Version: 6.00 Build 0)  -->
<svg version="1.1" id="Calque_1" xmlns="http://www.w3.org/2000/svg" xmlns:xlink="http://www.w3.org/1999/xlink" x="0px" y="0px"
	 viewBox="0 0 30 30" style="enable-background:new 0 0 30 30;" xml:space="preserve">
<path d="M21.7,0H8.3C3.7,0,0,3.7,0,8.3v13.4C0,26.3,3.7,30,8.3,30h13.4c4.6,0,8.3-3.7,8.3-8.3V8.3C30,3.7,26.3,0,21.7,0z M26.1,22.2
	h-2.7c-1,0-1.3-0.8-3.1-2.6c-1.6-1.5-2.2-1.7-2.6-1.7c-0.5,0-0.7,0.2-0.7,0.9v2.4c0,0.7-0.2,1-1.9,1c-2.8,0-5.9-1.7-8.1-4.9
	c-3.3-4.6-4.2-8.1-4.2-8.8c0-0.4,0.2-0.7,0.9-0.7h2.7c0.7,0,0.9,0.3,1.2,1c1.3,3.8,3.5,7.1,4.4,7.1c0.3,0,0.5-0.2,0.5-1V11
	c-0.1-1.8-1.1-1.9-1.1-2.6c0-0.3,0.3-0.6,0.7-0.6h4.2c0.6,0,0.7,0.3,0.7,1V14c0,0.6,0.3,0.8,0.4,0.8c0.3,0,0.6-0.2,1.2-0.8
	c1.9-2.1,3.3-5.4,3.3-5.4c0.2-0.4,0.5-0.7,1.2-0.7h2.7c0.8,0,1,0.4,0.8,1c-0.3,1.5-3.6,6.1-3.6,6.1c-0.3,0.4-0.4,0.7,0,1.2
	c0.3,0.4,1.2,1.2,1.8,1.9c1.1,1.3,2,2.4,2.2,3.1C27.3,21.8,26.9,22.2,26.1,22.2z"/>
</svg>
