<?xml version="1.0" encoding="utf-8"?>
<!-- Generator: Adobe Illustrator 25.0.1, SVG Export Plug-In . SVG Version: 6.00 Build 0)  -->
<svg version="1.1" id="Calque_1" xmlns="http://www.w3.org/2000/svg" xmlns:xlink="http://www.w3.org/1999/xlink" x="0px" y="0px"
	 viewBox="0 0 30 30" style="enable-background:new 0 0 30 30;" xml:space="preserve">
<g>
	<path d="M21.7,0H8.3C3.7,0,0,3.7,0,8.3v13.4C0,26.3,3.7,30,8.3,30h13.4c4.6,0,8.3-3.7,8.3-8.3V8.3C30,3.7,26.3,0,21.7,0z M15,24.9
		c-1.7,0-3.3-0.4-4.8-1.2L5,25l1.4-5.2c-0.9-1.5-1.3-3.2-1.3-5c0-5.5,4.5-10,10-10c2.7,0,5.2,1,7,2.9c1.9,1.9,2.9,4.4,2.9,7
		C25,20.4,20.5,24.9,15,24.9z"/>
	<path d="M20,17.2c-0.3-0.1-1.6-0.8-1.9-0.9c-0.3-0.1-0.4-0.1-0.6,0.1c-0.2,0.3-0.7,0.9-0.9,1.1c-0.2,0.2-0.3,0.2-0.6,0.1
		c-0.3-0.1-1.2-0.4-2.2-1.4c-0.8-0.7-1.4-1.6-1.5-1.9c-0.2-0.3,0-0.4,0.1-0.6c0.1-0.1,0.3-0.3,0.4-0.5c0.1-0.2,0.2-0.3,0.3-0.5
		c0.1-0.2,0-0.3,0-0.5c-0.1-0.1-0.6-1.5-0.9-2c-0.2-0.5-0.5-0.5-0.6-0.5l-0.5,0c-0.2,0-0.5,0.1-0.7,0.3c-0.3,0.3-1,0.9-1,2.3
		s1,2.7,1.1,2.9c0.1,0.2,1.9,3,4.7,4.2c0.7,0.3,1.2,0.5,1.6,0.6c0.7,0.2,1.3,0.2,1.7,0.1c0.5-0.1,1.6-0.7,1.9-1.3
		c0.2-0.6,0.2-1.2,0.2-1.3C20.5,17.4,20.3,17.3,20,17.2z"/>
</g>
</svg>
