<?xml version="1.0" encoding="utf-8"?>
<!-- Generator: Adobe Illustrator 25.1.0, SVG Export Plug-In . SVG Version: 6.00 Build 0)  -->
<svg version="1.1" id="Calque_1" xmlns="http://www.w3.org/2000/svg" xmlns:xlink="http://www.w3.org/1999/xlink" x="0px" y="0px"
	 viewBox="0 0 35 22" style="enable-background:new 0 0 35 22;" xml:space="preserve">
	<rect style="fill: #897047;" x="12.8" y="2.4" width="9.5" height="17.3"/>
	<path style="fill: #897047;" d="M13.4,11c0-3.4,1.5-6.6,4.1-8.6C12.8-1.4,6-0.6,2.3,4.2s-2.9,11.7,1.8,15.4c3.9,3.1,9.4,3.1,13.4,0
		C14.9,17.6,13.4,14.4,13.4,11z"/>
	<path style="fill: #A8977A;" d="M35,11c0,6.1-4.8,11-10.8,11c-2.4,0-4.8-0.8-6.7-2.4C22.2,15.9,23,9,19.3,4.2c-0.5-0.7-1.1-1.3-1.8-1.9
		C22.2-1.4,29-0.6,32.7,4.2C34.2,6.1,35,8.5,35,11L35,11z"/>
</svg>
