<?xml version="1.0" encoding="utf-8"?>
<!-- Generator: Adobe Illustrator 25.1.0, SVG Export Plug-In . SVG Version: 6.00 Build 0)  -->
<svg version="1.1" id="Calque_1" xmlns="http://www.w3.org/2000/svg" xmlns:xlink="http://www.w3.org/1999/xlink" x="0px" y="0px"
	 viewBox="0 0 50 15" style="enable-background:new 0 0 50 15;" xml:space="preserve">
	<path style="fill: #897047;" d="M13.5,0L13.5,0c0,0-2,0-2.5,2c-0.5,1.8-1.8,6.8-1.9,6.9H8.8c0,0-1.4-5.1-1.9-6.9C6.4,0,4.4,0,4.4,0H0v15h4.4V6.1h0.4
		L7.4,15h3.1l2.6-8.9h0.4V15h4.4V0H13.5z M29.7,0c0,0-1.3,0.1-1.9,1.6l-3.2,7.3h-0.4V0h-4.4v15H24c0,0,1.4-0.1,2-1.6l3.1-7.3h0.4V15
		h4.4V0H29.7z M35.9,6.8V15h4.4v-4.8h4.8c2.1,0,3.9-1.4,4.5-3.4L35.9,6.8L35.9,6.8L35.9,6.8z"/>
	<path style="fill: #A8977A;" class="st0" d="M45.2,0h-9.9c0.5,2.9,2.5,5.1,5.1,5.9c0.6,0.2,1.2,0.3,1.9,0.3h7.6C50,5.8,50,5.5,50,5.1C50,2.3,47.8,0,45.2,0
		L45.2,0z"/>
</svg>
