<?xml version="1.0" encoding="utf-8"?>
<!-- Generator: Adobe Illustrator 25.1.0, SVG Export Plsug-In . SVG Version: 6.00 Build 0)  -->
<svg version="1.1" xmlns="http://www.w3.org/2000/svg" xmlns:xlink="http://www.w3.org/1999/xlink" x="0px" y="0px"
	 viewBox="0 0 50 15" style="enable-background:new 0 0 50 15;" xml:space="preserve">
<path style="fill: #A8977A;" d="M0,0.3c0.8-0.1,5.6-0.1,7.2,0c0.7,0,1.4,0.6,1.5,1.2c0.5,2.3,1,4.7,1.5,7c-0.8-2.7-3.1-5-5.7-6.4
	C3.2,1.4,1.5,0.8,0,0.3z"/>
<g style="fill: #897047;">
	<path d="M14.5,0.3c1.4,0,2.9,0,4.3,0c-2.2,4.8-4.2,9.7-6.4,14.6c-1.4,0-2.8,0-4.2,0C6.9,10.6,5.8,6.4,4.6,2.2
		c2.6,1.4,4.8,3.7,5.7,6.4c0.1,0.5,0.2,1.1,0.3,1.6C11.8,6.9,13.2,3.6,14.5,0.3z"/>
	<path d="M20.3,0.3c1.3,0,2.7,0,4,0c-0.8,4.8-1.7,9.7-2.5,14.5c-1.3,0-2.7,0-4,0C18.6,10,19.5,5.1,20.3,0.3z"/>
	<path d="M28.2,1.2c2.4-1.5,5.6-1.4,8.2-0.6c-0.1,1.1-0.3,2.1-0.5,3.2c-1.4-0.6-3.1-0.9-4.6-0.5c-0.7,0.2-1.4,1-0.8,1.6
		c1.2,1.2,3.2,1.5,4.4,2.7c1.4,1.2,1.3,3.3,0.4,4.8c-1,1.5-2.9,2.3-4.7,2.6c-2.1,0.2-4.2,0.1-6.2-0.7c0.2-1.1,0.4-2.2,0.6-3.3
		c1.7,0.8,3.6,1.2,5.5,0.8c0.6-0.2,1.3-0.7,1.2-1.4c-0.2-0.8-1.1-1.2-1.9-1.6c-1.4-0.6-2.9-1.4-3.5-2.8C25.5,4.3,26.5,2.2,28.2,1.2z
		"/>
	<path d="M46.7,0.3c-1.2,0-2.5,0-3.7,0c-0.8,0-1.4,0.8-1.6,1.4c-1.9,4.4-3.9,8.7-5.8,13.1c1.4,0,2.8,0,4.2,0
		c0.3-0.7,0.6-1.5,0.9-2.2c1.7,0,3.4,0,5.2,0c0.2,0.7,0.3,1.5,0.5,2.2c1.2,0,2.5,0,3.7,0C48.9,10,47.8,5.1,46.7,0.3z M41.8,9.6
		C42.5,7.8,43.2,6,44,4.2c0.2,1.8,0.7,3.6,1.1,5.4C44,9.6,42.9,9.6,41.8,9.6z"/>
</g>
</svg>
