<?xml version="1.0" encoding="utf-8"?>
<!-- Generator: Adobe Illustrator 25.1.0, SVG Export Plug-In . SVG Version: 6.00 Build 0)  -->
<svg version="1.1" id="Calque_1" xmlns="http://www.w3.org/2000/svg" xmlns:xlink="http://www.w3.org/1999/xlink" x="0px"
	y="0px" viewBox="0 0 34 30" style="enable-background:new 0 0 34 30;" xml:space="preserve">
	<g style="fill: #897047;">
		<path d="M17,21.7c-0.5,0-0.8,0.4-0.8,0.8s0.4,0.8,0.8,0.8c0.5,0,0.9-0.4,0.9-0.8S17.5,21.7,17,21.7z" />
		<path
			d="M31,0H3C1.3,0,0,1.3,0,3v2h34V3C34,1.3,32.7,0,31,0z M32.8,3.8H1.2V3C1.2,2,2,1.2,3,1.2H31c1,0,1.8,0.8,1.8,1.8V3.8z" />
		<path d="M0,17c0,1.7,1.3,3,3,3h5.5v8.7c0,0.7,0.6,1.2,1.2,1.2h14.5c0.7,0,1.2-0.6,1.2-1.2V20H31c1.7,0,3-1.3,3-3V6.2H0V17z
				 M17.6,24.5V26c0,0.4-0.3,0.7-0.6,0.7c-0.4,0-0.6-0.3-0.6-0.7v-1.5c-0.9-0.3-1.5-1.1-1.5-2c0-1.2,1-2.1,2.1-2.1
				c1.2,0,2.1,1,2.1,2.1C19.1,23.5,18.5,24.3,17.6,24.5z M1.2,7.4h31.6V17c0,1-0.8,1.8-1.8,1.8h-5.5v-0.4c0-0.7-0.6-1.2-1.2-1.2
				h-1.9v-1.4c0-3.2-2.4-5.8-5.3-5.8c-2.9,0-5.3,2.6-5.3,5.8v1.4H9.8c-0.7,0-1.2,0.6-1.2,1.2v0.4H3c-1,0-1.8-0.8-1.8-1.8V7.4z
				 M12.9,17.1v-1.4c0-2.5,1.8-4.6,4.1-4.6s4.1,2,4.1,4.6v1.4H12.9z" />
		<path d="M3.8,15.8h4.6c0.3,0,0.6-0.3,0.6-0.6s-0.3-0.6-0.6-0.6H3.8c-0.3,0-0.6,0.3-0.6,0.6S3.4,15.8,3.8,15.8z" />
	</g>
</svg>