<?xml version="1.0" encoding="utf-8"?>
<!-- Generator: Adobe Illustrator 25.1.0, SVG Export Plug-In . SVG Version: 6.00 Build 0)  -->
<svg version="1.1" id="Calque_1" xmlns="http://www.w3.org/2000/svg" xmlns:xlink="http://www.w3.org/1999/xlink" x="0px" y="0px"
	 viewBox="0 0 34 30" style="enable-background:new 0 0 34 30;" xml:space="preserve">
<style type="text/css">
	.st0{fill:#897047;}
</style>
<g>
	<g>
		<path class="st0" d="M31,0H3C1.3,0,0,1.3,0,3v2h34V3C34,1.3,32.7,0,31,0z"/>
	</g>
	<g>
		<path class="st0" d="M0,17c0,1.7,1.3,3,3,3h5.5v8.7c0,0.7,0.6,1.2,1.2,1.2h14.5c0.7,0,1.2-0.6,1.2-1.2V20H31c1.7,0,3-1.3,3-3V6.2
			H0V17z M11.7,15.8c0-3.2,2.4-5.8,5.3-5.8c2.9,0,5.3,2.6,5.3,5.8v1.4h-1.2v-1.4c0-2.5-1.8-4.6-4.1-4.6s-4.1,2-4.1,4.6v1.4h-1.2
			V15.8z M9.7,18.4C9.7,18.4,9.7,18.3,9.7,18.4l14.5,0c0,0,0.1,0,0.1,0v10.4c0,0,0,0-0.1,0H9.8c0,0-0.1,0-0.1,0V18.4z M3.8,14.6h4.6
			c0.3,0,0.6,0.3,0.6,0.6s-0.3,0.6-0.6,0.6H3.8c-0.3,0-0.6-0.3-0.6-0.6S3.4,14.6,3.8,14.6z"/>
	</g>
	<g>
		<path class="st0" d="M16.4,24.5V26c0,0.4,0.3,0.7,0.6,0.7c0.4,0,0.6-0.3,0.6-0.7v-1.5c0.9-0.3,1.5-1.1,1.5-2c0-1.2-1-2.1-2.1-2.1
			s-2.1,1-2.1,2.1C14.9,23.5,15.5,24.3,16.4,24.5z M17,21.7c0.5,0,0.9,0.4,0.9,0.8s-0.4,0.8-0.9,0.8c-0.5,0-0.9-0.4-0.9-0.8
			S16.5,21.7,17,21.7z"/>
	</g>
</g>
</svg>
