<?xml version="1.0" encoding="utf-8"?>
<!-- Generator: Adobe Illustrator 25.1.0, SVG Export Plug-In . SVG Version: 6.00 Build 0)  -->
<svg version="1.1" id="Calque_1" xmlns="http://www.w3.org/2000/svg" xmlns:xlink="http://www.w3.org/1999/xlink" x="0px" y="0px"
	 viewBox="0 0 30 30" style="enable-background:new 0 0 30 30;" xml:space="preserve">
<style type="text/css">
	.st0{fill:#897047;}
</style>
<g>
	<path class="st0" d="M6.8,0c-0.4,0-1,0.1-1.3,0.3c-0.3,0.2-1,0.6-1.4,0.9l0,0c0,0-0.1,0.1-0.1,0.1c0,0-0.1,0.1-0.1,0.1l0,0
		C1,3.6-0.1,6.6,0,7.8C0.1,9.1,0.9,16,7.6,22.4c7.7,7.4,13.2,7.6,14.3,7.6c0.1,0,0.2,0,0.2,0c1,0,4.6-1,6.6-3.5l0,0
		c0-0.1,0.1-0.1,0.1-0.2c0,0,0-0.1,0.1-0.1c0.1-0.1,0.2-0.3,0.3-0.4c0,0,0,0,0-0.1l0,0c0.3-0.5,0.5-1,0.6-1.2
		c0.2-0.6,0.5-1.6,0.2-1.9c-0.1-0.1-6.2-3.7-6.4-3.8c-0.2-0.1-0.4-0.1-0.6-0.1c-0.3,0-0.6,0.2-1,0.6c-0.2,0.2-1.1,1.4-1.6,1.9
		c-0.2,0.3-0.5,0.5-0.5,0.6c-0.4,0.4-0.7,0.6-0.9,0.6c-0.1,0-0.3,0-0.5-0.1c-0.2-0.1-2.1-1.1-6.1-4.6c-4-3.6-4.5-5.9-4.6-6.5
		c0-0.2,0.2-0.6,0.6-0.9c0.2-0.2,0.4-0.4,0.6-0.6l0,0l0,0C9,9.8,9.4,9.4,9.5,9.3C10,9,10.4,8.6,10.8,8.2c0.4-0.4,0.6-0.8,0.6-1
		c0-0.2,0-0.4-0.1-0.6c-0.1-0.2-3.8-6.3-3.9-6.4C7.3,0,7.1,0,6.8,0L6.8,0z"/>
	<g>
		<path class="st0" d="M17.5,0c-0.4,0-0.7,0.3-0.6,0.7c0,0.4,0.3,0.7,0.7,0.6c2.9-0.1,5.8,1.1,7.9,3.2c2.1,2.1,3.3,5,3.2,7.9
			c0,0.4,0.3,0.7,0.6,0.7c0,0,0,0,0,0c0.4,0,0.7-0.3,0.7-0.6c0.1-3.3-1.2-6.5-3.6-8.9S20.7-0.1,17.5,0z"/>
		<path class="st0" d="M22.1,7.9c1.2,1.2,1.9,2.7,2,4.5c0,0.4,0.3,0.6,0.7,0.6c0,0,0,0,0,0c0.4,0,0.6-0.3,0.6-0.7
			c-0.1-2.1-1-3.9-2.4-5.4c-1.4-1.4-3.3-2.2-5.4-2.4c-0.4,0-0.7,0.3-0.7,0.6c0,0.4,0.3,0.7,0.6,0.7C19.4,6,21,6.7,22.1,7.9z"/>
	</g>
</g>
</svg>
