<?xml version="1.0" encoding="utf-8"?>
<!-- Generator: Adobe Illustrator 25.1.0, SVG Export Plug-In . SVG Version: 6.00 Build 0)  -->
<svg version="1.1" id="Calque_1" xmlns="http://www.w3.org/2000/svg" xmlns:xlink="http://www.w3.org/1999/xlink" x="0px" y="0px"
	 viewBox="0 0 39 30" style="enable-background:new 0 0 39 30;" xml:space="preserve">
<style type="text/css">
	.st0{fill:#A8977A;}
</style>
<g>
	<path class="st0" d="M38.3,18.3l-7.4-7.4c-0.4-0.5-1-0.7-1.6-0.7c-0.9,0.1-1.6,1-1.5,1.9v3.2c0,0.1,0,0.1-0.1,0.1H15.1
		c-1.4,0-2.6,1.1-2.6,2.6v4.5c0,1.4,1.1,2.6,2.6,2.6h12.6c0.1,0,0.1,0,0.1,0.1v2.9c-0.1,0.8,0.3,1.5,1,1.8C29,30,29.2,30,29.4,30
		c0.5,0,1-0.3,1.4-0.7l7.4-7.4c0,0,0,0,0,0C39.3,20.9,39.2,19.3,38.3,18.3z"/>
	<path class="st0" d="M10.3,7h11.8c0.3,0,0.5,0.1,0.7,0.3C23,7.5,23.1,7.7,23.1,8c0,0.4,0.3,0.7,0.7,0.7c0.4,0,0.7-0.3,0.7-0.7
		c0-1.3-1-2.3-2.3-2.3H10.3l-0.1-0.1V1.7c0.1-0.5-0.2-1.1-0.6-1.4C9-0.2,8-0.1,7.5,0.6L0.7,7.4c-0.9,0.9-0.9,2.4,0,3.3l6.8,6.8
		c0.3,0.4,0.8,0.6,1.3,0.6c0.2,0,0.4,0,0.5-0.1c0.6-0.3,1-0.9,0.9-1.6l0-4c0-0.4-0.3-0.7-0.7-0.7c-0.4,0-0.7,0.3-0.7,0.7l0,4
		c0,0.3-0.1,0.4-0.1,0.4s-0.2,0-0.3-0.2L1.6,9.7c-0.4-0.4-0.4-1,0-1.4l6.8-6.8c0.2-0.2,0.3-0.2,0.4-0.2s0.1,0.2,0.1,0.4v3.8
		C8.9,6.3,9.5,7,10.3,7z"/>
</g>
</svg>
