<?xml version="1.0" encoding="utf-8"?>
<!-- Generator: Adobe Illustrator 25.1.0, SVG Export Plug-In . SVG Version: 6.00 Build 0)  -->
<svg version="1.1" id="Calque_1" xmlns="http://www.w3.org/2000/svg" xmlns:xlink="http://www.w3.org/1999/xlink" x="0px" y="0px"
	 viewBox="0 0 42 30" style="enable-background:new 0 0 42 30;" xml:space="preserve">
<g style="fill: #897047;">
	<path d="M27.3,3.8c0-2.1-1.8-3.8-4-3.8H4C1.8,0,0,1.7,0,3.8v16.4C0,22.3,1.8,24,4,24h3.3c-0.1,0.4-0.2,0.8-0.2,1.2
		c0,2.7,2.1,4.8,4.8,4.8s4.8-2.1,4.8-4.8c0-0.4-0.1-0.8-0.2-1.2h10.7V3.8z M15,25.2c0,1.6-1.4,3-3,3s-3-1.4-3-3
		c0-0.4,0.1-0.8,0.3-1.2c0.5-1.1,1.5-1.8,2.7-1.8s2.3,0.8,2.7,1.8C14.9,24.4,15,24.8,15,25.2z M25.5,22.2h-9.8
		c-0.9-1.1-2.2-1.8-3.7-1.8s-2.9,0.7-3.7,1.8H4c-1.2,0-2.2-0.9-2.2-2V3.8c0-1.1,1-2,2.2-2h19.3c1.2,0,2.2,0.9,2.2,2V22.2z"/>
		<path d="M17,12.9H4c-0.5,0-0.9-0.4-0.9-0.9s0.4-0.9,0.9-0.9h13c0.5,0,0.9,0.4,0.9,0.9S17.5,12.9,17,12.9z"/>

		<path d="M23,17.3H7c-0.5,0-0.9-0.4-0.9-0.9c0-0.5,0.4-0.9,0.9-0.9h16c0.5,0,0.9,0.4,0.9,0.9C23.9,16.9,23.5,17.3,23,17.3z"/>

		<path d="M20.8,8.5H9.2c-0.5,0-0.9-0.4-0.9-0.9s0.4-0.9,0.9-0.9h11.7c0.5,0,0.9,0.4,0.9,0.9S21.3,8.5,20.8,8.5z"/>
	<path d="M41.7,13.3l-6.9-7C34.6,6.1,34.4,6,34.1,6h-8.6v18h3.6C29,24.4,29,24.8,29,25.2c0,2.7,2.1,4.8,4.8,4.8s4.8-2.1,4.8-4.8
		c0-0.4-0.1-0.8-0.2-1.2h2.7c0.5,0,0.9-0.4,0.9-1v-9.1C42,13.7,41.9,13.4,41.7,13.3z M33.8,28.2c-1.6,0-3-1.4-3-3
		c0-0.4,0.1-0.8,0.3-1.2c0.5-1.1,1.5-1.8,2.7-1.8c1.2,0,2.3,0.8,2.7,1.8c0.2,0.4,0.3,0.8,0.3,1.2C36.8,26.8,35.4,28.2,33.8,28.2z
		 M30,15.9v-5.7h3.4c0.1,0,0.2,0.1,0.3,0.2l4.3,5.5H30z"/>
</g>
</svg>
