<?xml version="1.0" encoding="utf-8"?>
<!-- Generator: Adobe Illustrator 25.1.0, SVG Export Plug-In . SVG Version: 6.00 Build 0)  -->
<svg version="1.1" id="Calque_1" xmlns="http://www.w3.org/2000/svg" xmlns:xlink="http://www.w3.org/1999/xlink" x="0px" y="0px"
	 viewBox="0 0 42 30" style="enable-background:new 0 0 42 30;" xml:space="preserve">
<g style="fill: #897047;">
<path d="M32.4,11.9l2,2.4h-3.3v-2.4H32.4 M33,10.1h-3.8v6h9l-4.9-5.8C33.3,10.1,33.2,10.1,33,10.1L33,10.1z"/>
<path d="M41.7,13.3l-6.9-7C34.6,6.1,34.4,6,34.1,6h-8.6v18h3.6c-0.1,0.4-0.2,0.8-0.2,1.2c0,2.7,2.1,4.8,4.8,4.8s4.8-2.1,4.8-4.8
	c0-0.4-0.1-0.8-0.2-1.2h2.7c0.5,0,0.9-0.4,0.9-1v-9.1C42,13.7,41.9,13.4,41.7,13.3z M36.8,25.2c0,1.6-1.4,3-3,3s-3-1.4-3-3
	c0-0.4,0.1-0.8,0.3-1.2c0.5-1.1,1.5-1.8,2.7-1.8s2.3,0.8,2.7,1.8C36.7,24.4,36.8,24.8,36.8,25.2z M40.2,22.2h-2.7
	c-0.9-1.1-2.2-1.8-3.7-1.8s-2.9,0.7-3.7,1.8h-2.7V7.8h6.5l6.4,6.5V22.2z"/>
<path d="M27.3,3.8c0-2.1-1.8-3.8-4-3.8H4C1.8,0,0,1.7,0,3.8v16.4C0,22.3,1.8,24,4,24h3.3c-0.1,0.4-0.2,0.8-0.2,1.2
	c0,2.7,2.1,4.8,4.8,4.8s4.8-2.1,4.8-4.8c0-0.4-0.1-0.8-0.2-1.2h10.7V3.8z M9.2,6.7h11.7c0.5,0,0.9,0.4,0.9,0.9s-0.4,0.9-0.9,0.9H9.2
	c-0.5,0-0.9-0.4-0.9-0.9S8.7,6.7,9.2,6.7z M4,12.9c-0.5,0-0.9-0.4-0.9-0.9s0.4-0.9,0.9-0.9h13c0.5,0,0.9,0.4,0.9,0.9
	s-0.4,0.9-0.9,0.9H4z M12,28.2c-1.6,0-3-1.4-3-3c0-0.4,0.1-0.8,0.3-1.2c0.5-1.1,1.5-1.8,2.7-1.8s2.3,0.8,2.7,1.8
	c0.2,0.4,0.3,0.8,0.3,1.2C15,26.8,13.6,28.2,12,28.2z M23,17.3H7c-0.5,0-0.9-0.4-0.9-0.9c0-0.5,0.4-0.9,0.9-0.9h16
	c0.5,0,0.9,0.4,0.9,0.9C23.9,16.9,23.5,17.3,23,17.3z"/>
</g>
</svg>
