<?xml version="1.0" encoding="utf-8"?>
<!-- Generator: Adobe Illustrator 25.1.0, SVG Export Plug-In . SVG Version: 6.00 Build 0)  -->
<svg version="1.1" id="Calque_1" xmlns="http://www.w3.org/2000/svg" xmlns:xlink="http://www.w3.org/1999/xlink" x="0px" y="0px"
	 viewBox="0 0 39 30" style="enable-background:new 0 0 39 30;" xml:space="preserve">
<style type="text/css">
	.st0{fill:#897047;}
</style>
<g>
	<path class="st0" d="M9.5,19.8c0.1,0,0.1,0,0.2,0c0.9-0.1,1.6-1,1.5-1.9v-3.2c0-0.1,0-0.1,0.1-0.1h12.6c1.4,0,2.6-1.1,2.6-2.6V7.5
		c0-1.4-1.1-2.6-2.6-2.6H11.3c-0.1,0-0.1,0-0.1-0.1V1.9c0.1-0.8-0.3-1.5-1-1.8C10,0,9.8,0,9.6,0c0,0,0,0,0,0c-0.5,0-1,0.3-1.4,0.7
		L0.7,8.1c0,0,0,0,0,0c-1,1-1,2.6,0,3.6l7.4,7.4C8.5,19.6,9,19.8,9.5,19.8L9.5,19.8z"/>
	<path class="st0" d="M28.7,23H16.9c-0.3,0-0.5-0.1-0.7-0.3c-0.2-0.2-0.3-0.4-0.3-0.7c0-0.4-0.3-0.7-0.7-0.7c-0.4,0-0.7,0.3-0.7,0.7
		c0,1.3,1,2.3,2.3,2.3h11.8l0.1,0.1v3.8c-0.1,0.5,0.2,1.1,0.6,1.4c0.7,0.5,1.6,0.4,2.1-0.3l6.8-6.8c0.9-0.9,0.9-2.4,0-3.3l-6.8-6.8
		c-0.3-0.4-0.8-0.6-1.3-0.6c-0.2,0-0.4,0-0.5,0.1c-0.6,0.3-1,0.9-0.9,1.6l0,4c0,0.4,0.3,0.7,0.7,0.7c0.4,0,0.7-0.3,0.7-0.7l0-4
		c0-0.3,0.1-0.4,0.1-0.4s0.2,0,0.3,0.2l6.8,6.8c0.4,0.4,0.4,1,0,1.4l-6.8,6.8c-0.2,0.2-0.3,0.2-0.4,0.2s-0.1-0.2-0.1-0.4v-3.8
		C30.1,23.7,29.5,23,28.7,23z"/>
</g>
</svg>
